<?xml version="1.0" standalone="no"?>
<!DOCTYPE svg PUBLIC "-//W3C//DTD SVG 20010904//EN"
 "http://www.w3.org/TR/2001/REC-SVG-20010904/DTD/svg10.dtd">
<svg version="1.0" xmlns="http://www.w3.org/2000/svg"
 width="512.000000pt" height="512.000000pt" viewBox="0 0 512.000000 512.000000"
 preserveAspectRatio="xMidYMid meet">

<g transform="translate(0.000000,512.000000) scale(0.100000,-0.100000)"
fill="#000000" stroke="none">
<path d="M2468 3825 c-54 -17 -36 1 -616 -638 -204 -224 -378 -425 -389 -445
-12 -25 -18 -58 -18 -102 1 -74 23 -126 77 -177 61 -59 88 -63 413 -63 l292 0
6 -292 c4 -161 7 -367 7 -457 0 -199 7 -229 75 -296 63 -64 100 -75 251 -75
98 0 127 4 164 21 56 25 86 53 113 104 22 39 22 51 25 518 l3 477 296 0 c199
0 309 4 335 12 91 27 168 132 168 228 0 93 -6 100 -496 637 -351 384 -475 514
-510 532 -56 30 -132 36 -196 16z"/>
</g>
</svg>
