<?xml version="1.0" encoding="UTF-8"?>
<svg width="752pt" height="752pt" version="1.1" viewBox="0 0 752 752" xmlns="http://www.w3.org/2000/svg">
 <defs>
  <clipPath id="a">
   <path d="m139.21 139.21h473.58v473.58h-473.58z"/>
  </clipPath>
 </defs>
 <g clip-path="url(#a)">
  <path d="m376 470.72c31.062 0 57.469 19.938 67.121 47.711l1.1562-0.19531 2.7617-0.16016h142.07c13.078 0 23.68 10.602 23.68 23.68 0 12.145-9.1406 22.152-20.918 23.52l-2.7617 0.16016h-142.07c-1.3398 0-2.6523-0.10938-3.9297-0.32422-9.6406 27.746-36.047 47.684-67.109 47.684s-57.465-19.938-67.117-47.715l-1.1562 0.19531-2.7617 0.16016h-142.07c-13.078 0-23.68-10.602-23.68-23.68 0-12.145 9.1406-22.152 20.918-23.52l2.7617-0.16016h142.07c1.3398 0 2.6523 0.11328 3.9297 0.32812 9.6406-27.746 36.043-47.684 67.105-47.684zm0 47.355c-13.074 0-23.676 10.602-23.676 23.68s10.602 23.68 23.676 23.68c13.078 0 23.68-10.602 23.68-23.68s-10.602-23.68-23.68-23.68zm-165.75-213.11c31.059 0 57.465 19.938 67.117 47.711l1.1562-0.19531 2.7617-0.15625h307.83c13.078 0 23.68 10.602 23.68 23.676 0 12.145-9.1406 22.152-20.918 23.52l-2.7617 0.16016h-307.83c-1.3398 0-2.6523-0.10938-3.9297-0.32422-9.6406 27.746-36.047 47.684-67.105 47.684-39.234 0-71.039-31.805-71.039-71.039 0-39.23 31.805-71.035 71.039-71.035zm0 47.359c-13.078 0-23.68 10.602-23.68 23.676 0 13.078 10.602 23.68 23.68 23.68 13.074 0 23.676-10.602 23.676-23.68 0-13.074-10.602-23.676-23.676-23.676zm260.47-213.11c31.062 0 57.465 19.938 67.117 47.711l1.1562-0.19531 2.7617-0.15625h47.359c13.078 0 23.68 10.602 23.68 23.68 0 12.141-9.1406 22.148-20.918 23.52l-2.7617 0.15625h-47.359c-1.3398 0-2.6523-0.10938-3.9297-0.32422-9.6406 27.746-36.043 47.684-67.105 47.684s-57.469-19.938-67.121-47.711l-1.1562 0.19531-2.7617 0.15625h-236.79c-13.078 0-23.68-10.602-23.68-23.676 0-12.145 9.1406-22.152 20.918-23.523l2.7617-0.15625h236.79c1.3398 0 2.6523 0.10938 3.9336 0.32422 9.6367-27.746 36.043-47.684 67.105-47.684zm0 47.359c-13.078 0-23.68 10.602-23.68 23.68 0 13.074 10.602 23.676 23.68 23.676s23.68-10.602 23.68-23.676c0-13.078-10.602-23.68-23.68-23.68z"/>
 </g>
</svg>
