<?xml version="1.0" encoding="UTF-8"?>
<svg width="752pt" height="752pt" version="1.1" viewBox="0 0 752 752" xmlns="http://www.w3.org/2000/svg">
 <path d="m376 167.62c-25.996 0-50.445 7.2891-71.184 19.98-2.2266 1.2695-3.8438 3.3945-4.4805 5.8789-0.63672 2.4844-0.23828 5.1211 1.1055 7.3086 1.3438 2.1836 3.5156 3.7305 6.0234 4.2852 2.5039 0.55859 5.125 0.070313 7.2656-1.3398 17.875-10.938 38.816-17.168 61.27-17.168 12.109 0 23.785 1.9297 34.781 5.3281 9.4102 19.141 11.793 28.406 12.133 35.367-0.69531 0.57812-1.3906 1.1602-2.8086 2.0742-3.8789 2.4883-9.7031 5.6094-15.246 9.3242-5.5391 3.7109-11.387 7.8867-14.355 15.539-1.4844 3.8242-1.6992 8.6914-0.29688 13.023 1.2539 3.8633 3.7656 7.1055 6.8086 10.211l-0.14844 0.14844 12.875 16.723c-2.2578 1.7148-3.7617 2.9141-8.1367 5.7734-3.4219 2.2344-7 4.8242-10.211 8.582-3.2148 3.7578-5.9219 9.1953-5.9219 15.242 0 20.523 18.352 31.523 18.352 31.523 4.3711 2.9414 10.305 1.7852 13.246-2.5898 2.9414-4.3711 1.7812-10.301-2.5898-13.246 0 0-10.062-7.793-10.062-15.688 0-1.0547 0.16406-1.5977 1.332-2.957 1.1641-1.3633 3.3633-3.1719 6.2148-5.0352 4.6758-3.0508 10.777-6.4219 15.688-12.43 0.019531-0.027344 0.125 0.027344 0.14844 0 1.3516-0.84375 2.4727-2.0117 3.2539-3.4023v-0.14844c0.29687-0.51953 0.54687-1.0625 0.74219-1.6289v-0.14844c0.058594-0.24609 0.10547-0.49219 0.14453-0.73828 0.003906-0.050781 0.003906-0.10156 0-0.14844 0.0625-0.24609 0.10938-0.49219 0.14844-0.74219 0.003906-0.097656 0.003906-0.19531 0-0.29297 0.058594-0.24609 0.10938-0.49219 0.14844-0.74219v-0.14844c-0.039062-0.24609-0.089843-0.49609-0.14844-0.73828 0.003906-0.097657 0.003906-0.19922 0-0.29688-0.042969-0.19922-0.089844-0.39453-0.14844-0.59375 0.003906-0.097656 0.003906-0.19531 0-0.29297-0.039062-0.25-0.085937-0.49609-0.14453-0.74219v-0.14844c-0.089844-0.25-0.1875-0.49609-0.29688-0.73828v-0.14844c-0.29688-0.52344-0.64453-1.0195-1.0352-1.4805v-0.14844c-0.097656-0.097656-0.19531-0.19922-0.29688-0.29297-0.26562-0.41797-0.5625-0.81641-0.89062-1.1875l-17.312-22.492c-0.3125-0.42188-0.66016-0.82031-1.0352-1.1836-2.0234-1.9141-2.6953-3.1914-2.8125-3.5547-0.11719-0.35938 0.019531 0.03125 0.14844-0.29297 0.25-0.65234 2.875-3.7305 7.25-6.6602 4.375-2.9336 9.832-5.8398 14.801-9.0273 2.4805-1.5977 4.8711-3.2227 7.1016-5.4766s4.8867-5.5859 4.8867-10.656c0-7.4141-1.6914-15.203-5.7734-25.75 34.652 20.828 57.867 58.91 57.867 102.71 0 44.656-21.688 83.664-56.832 104.19-2.6953 1.543-4.4648 4.3047-4.7344 7.3984l-4.7383 56.832c-0.027344 0.36719-0.21094 0.69141-0.29297 0.88672h-103.6c-0.085937-0.19922-0.26562-0.51953-0.29688-0.88672l-4.7344-56.832c-0.26953-3.0938-2.0391-5.8555-4.7344-7.3984-35.145-20.523-56.832-59.531-56.832-104.19 0-28.699 9.8008-55.254 26.344-75.773 3.3086-4.0859 2.6797-10.082-1.4062-13.395-4.0859-3.3086-10.082-2.6797-13.395 1.4062-19.262 23.895-30.484 54.758-30.484 87.762 0 48.941 23.309 92.922 61.859 117.66l4.4414 52.391c0.32812 3.9336 1.7109 8.043 4.7344 11.691 2.207 2.6602 5.6055 4.8984 9.4727 5.918v38.477c0 5.2344 4.2422 9.4727 9.4727 9.4727h0.88672c4.0469 23.168 22.582 42.625 46.469 42.625 23.891 0 42.422-19.457 46.473-42.625h0.88672c5.2305 0 9.4727-4.2383 9.4727-9.4727v-38.477c3.8633-1.0195 7.2617-3.2578 9.4727-5.918 3.0234-3.6484 4.4062-7.7578 4.7344-11.691l4.4375-52.391c38.555-24.734 61.863-68.715 61.863-117.66 0-76.328-61.551-138.52-137.34-138.52zm-37.887 326.77h75.773v28.414h-75.773zm11.25 47.355h53.277c-3.8398 13.172-14.68 23.68-26.641 23.68-11.957 0-22.801-10.508-26.637-23.68z"/>
</svg>
