<?xml version="1.0" encoding="UTF-8"?>
<svg width="752pt" height="752pt" version="1.1" viewBox="0 0 752 752" xmlns="http://www.w3.org/2000/svg">
 <g>
  <path d="m277.97 485.87c5.6836 0 10.418-4.2617 11.367-9.9453 0.94531-6.1562-3.7891-11.84-9.9453-12.785l-68.195-8.0508c-6.1562-0.94531-11.84 3.7891-12.785 9.9453-0.94531 6.1562 3.7891 11.84 9.9453 12.785l68.195 8.0508h1.418z"/>
  <path d="m260.45 448.46c4.7344 0 8.9961-2.8398 10.891-7.5781 2.3672-5.6836-0.94531-12.312-6.6289-14.68l-106.08-38.363c-5.6836-2.3672-12.312 0.94531-14.68 6.6289-2.3672 5.6836 0.94531 12.312 6.6289 14.68l105.61 38.359c1.8906 0.47656 3.3125 0.95313 4.2617 0.95313z"/>
  <path d="m332.43 510.02c0.47266 2.8398 2.3672 5.6836 4.7344 7.1055 1.8945 0.94531 3.7891 1.8945 6.1562 1.8945 0.94531 0 1.4219 0 2.3672-0.47266l57.777-12.785c6.1562-1.4219 9.9453-7.5781 8.5234-13.734l-7.5742-36.941 161.96-35.52c6.1562-1.4219 9.9453-7.5781 8.5234-13.734s-7.5781-9.9453-13.734-8.5234l-173.33 37.887c-6.1562 1.4219-9.9453 7.5781-8.5234 13.734l8.0508 37.414-35.043 8.0508-33.625-152.96 35.992-114.61 57.305-12.785c6.1562-1.4219 9.9453-7.5781 8.5234-13.734s-7.5781-9.9453-13.734-8.5234l-63.934 14.207c-3.7891 0.94531-7.1055 3.7891-8.5234 7.5781l-38.832 124.08c-0.003906 1.4141-0.003906 3.3086 0.46875 5.2031z"/>
  <path d="m417.68 392.1c0.94531 5.2109 5.6836 8.9961 10.891 8.9961 0.94531 0 1.4219 0 2.3672-0.47266l113.66-25.102c6.1562-1.4219 9.9453-7.5781 8.5234-13.734-1.4219-6.1562-7.5781-9.9453-13.734-8.5234l-113.66 25.102c-5.2031 1.4219-8.9922 7.5781-8.0469 13.734z"/>
  <path d="m411.52 361.79c0.94531 5.2109 5.6836 8.9961 10.891 8.9961 0.94531 0 1.4219 0 2.3672-0.47266l91.402-19.891c6.1562-1.4219 9.9453-7.5781 8.5234-13.734s-7.5781-9.9453-13.734-8.5234l-91.402 19.891c-5.6797 1.8945-9.4688 8.0508-8.0469 13.734z"/>
  <path d="m341.9 388.32c0 15.629 12.785 28.414 28.414 28.414s28.414-12.785 28.414-28.414-12.785-28.414-28.414-28.414c-15.625-0.003906-28.414 12.785-28.414 28.414zm34.098 0c0 3.3164-2.3672 5.6836-5.6836 5.6836s-5.6836-2.3672-5.6836-5.6836 2.3672-5.6836 5.6836-5.6836 5.6836 2.8398 5.6836 5.6836z"/>
  <path d="m597.16 506.23h-152.49c-2.8398 0-5.6836 0.94531-7.5781 2.8398 0 0-17.523 16.102-44.988 24.152-35.992 10.891-70.562 2.3672-102.77-24.625-4.7344-3.7891-11.84-3.3164-16.102 1.4219-3.7891 4.7344-3.3164 11.84 1.4219 16.102 31.258 26.047 61.566 34.098 87.613 34.098 13.734 0 26.047-2.3672 36.465-5.2109 24.625-7.5781 43.098-20.363 50.199-26.047h148.23c6.1562 0 11.367-5.2109 11.367-11.367-0.003906-6.1523-5.2148-11.363-11.371-11.363z"/>
  <path d="m190.36 506.23h-21.785c-6.1562 0-11.367 5.2109-11.367 11.367s5.2109 11.367 11.367 11.367h21.785c6.1562 0 11.367-5.2109 11.367-11.367-0.003906-6.1562-4.7383-11.367-11.367-11.367z"/>
 </g>
</svg>
