<?xml version="1.0" encoding="UTF-8"?>
<svg width="752pt" height="752pt" version="1.1" viewBox="0 0 752 752" xmlns="http://www.w3.org/2000/svg">
 <defs>
  <clipPath id="a">
   <path d="m139.21 345h41.789v31h-41.789z"/>
  </clipPath>
 </defs>
 <path d="m546.3 273.75c24.168 6.2383 48.777-8.2969 55.043-32.473 6.2227-24.207-8.2656-48.809-32.441-55.086-24.195-6.2305-48.805 8.2695-55.074 32.473-6.2305 24.18 8.2422 48.816 32.473 55.086z"/>
 <path d="m426.27 519.06c34.336-0.30078 71.75 9.8203 102.56 21.059-15.543-14.902-41.609-38.168-63.625-49.332-13.652-6.9141-25.52-10.617-35.191-12.723l-6.7461 41.109c1.0273-0.011719 1.957-0.09375 3-0.11328z"/>
 <path d="m585.74 525.65c-2.6953 0-5.3672-1.2891-7.0195-3.6758-0.17969-0.22656-16.68-23.652-40.809-27.738-14.328-2.4531-26.93 1.4453-27.062 1.4648-4.4336 1.4844-9.293-1.0156-10.738-5.4961-1.4453-4.5 1.0156-9.3008 5.4961-10.75 0.66797-0.20703 16.547-5.207 35.16-2.0781 31.32 5.3359 51.152 33.676 51.992 34.898 2.6602 3.8633 1.6836 9.1797-2.1797 11.848-1.4648 1.0391-3.1484 1.5273-4.8398 1.5273z"/>
 <path d="m529.55 602.81c-2.7148 0-5.375-1.2891-7.0469-3.7031-0.16797-0.25391-17.309-24.797-42.688-27.637-16.68-1.9375-33.594 5.0469-33.762 5.1016-4.3711 1.8594-9.332-0.25391-11.152-4.6328-1.7852-4.3594 0.26172-9.332 4.6328-11.145 0.88281-0.34766 21.281-8.5703 42.16-6.3047 33.281 3.7383 54.02 33.723 54.895 35 2.6484 3.8789 1.6523 9.1914-2.2383 11.84-1.4648 0.99219-3.125 1.4805-4.8008 1.4805z"/>
 <path d="m396.91 593.57c-2.8281 0-5.6016-1.3984-7.2344-3.957-0.14844-0.24609-15.891-24.582-38.996-27.398-14.754-1.6992-30.5 4.9336-30.652 5.0195-4.3398 1.8984-9.3477-0.019531-11.266-4.332-1.9258-4.3047 0.019531-9.3398 4.3125-11.258 0.80859-0.34766 19.977-8.7852 39.672-6.3789 31.254 3.7773 50.57 33.941 51.371 35.227 2.5273 3.9922 1.3242 9.2266-2.6484 11.746-1.4219 0.91016-3.0117 1.332-4.5586 1.332z"/>
 <path d="m304.92 520.61c-2.6016 0-5.1953-1.1836-6.8594-3.4375-0.13281-0.19922-13.898-18.531-31.16-22.684-23.117-5.582-41.684 8.2695-41.871 8.418-3.7109 2.8555-9.0664 2.1523-11.941-1.5781-2.8555-3.7227-2.1875-9.0391 1.5234-11.926 0.98828-0.78906 24.918-19.055 56.324-11.539 23.379 5.668 40.168 28.207 40.883 29.168 2.7891 3.7773 1.9727 9.125-1.8125 11.926-1.5547 1.1172-3.3203 1.6523-5.0859 1.6523z"/>
 <path d="m607.73 407.64-94.078-145.28c-3.0625-5.0547-9.1445-10.898-17.676-15.164-5.4883-2.7539-13.145-3.8906-21.359-4.1719-0.81641-0.11328-1.5898-0.046876-2.3867-0.066407-21.227-0.26172-45.094 4.9805-45.094 4.9805l-96.188 21.414c-13.523 3.7227-25.07 13.316-30.969 26.609l-19.602 77.801-87.715 15.176c-9.9414 1.8984-18.465 9.0977-21.602 19.434-4.5 14.836 3.8242 30.426 18.68 34.973 4.5938 1.4297 9.3203 1.5703 13.691 0.62891l107.34-18.594c7.8945-1.8984 14.715-7.168 18.492-14.676l12.273-48.41 25.906 78.215-4.1641 30.82c-4.1445 0.14062-8.6523 0.30859-13.617 0.60156-11.34 0.66797-23.367 2.4258-33.047 4.1172 12.723 5.5352 26.949 12.863 37.312 21.508 9.9805 8.2969 16.434 17.469 20.57 24.957 11.848-1.3516 24.094-2.4531 37.285-2.9336l9-64.129c0.17969-0.50781 1.7656-10.328 1.7656-20.27 0-7.5547-1.4375-10.676-2.8359-17.789l-19.066-66.562 23.414-4.793-9.6875-42.086 11.734-2.5664 21.312 91.391c2.5469 8.9375 10.664 14.875 19.574 14.875 1.7109 0 3.3906-0.21484 5.1289-0.64844 10.938-2.8203 17.535-13.973 14.734-24.93l-11.973-46.68 30.594-6.3711 65.84 101.94c2.8359 4.7266 7.5078 8.4102 13.305 9.875 11.586 2.8672 23.293-4.1641 26.234-15.785 1.5078-6.2383 0.22266-12.508-3.125-17.41z"/>
 <g clip-path="url(#a)">
  <path d="m158.3 346.16c8.082 2.1719 22.645 21.762 22.645 21.762s-22.422 9.707-30.512 7.5469c-8.082-2.1719-12.875-10.488-10.723-18.586 2.1992-8.0664 10.508-12.887 18.59-10.723z"/>
 </g>
 <path d="m212.77 329.01c3.0078 6.3789-1.6445 26.387-1.6445 26.387s-18.391-9.1055-21.414-15.457c-3.0078-6.3711-0.29297-13.973 6.0781-16.969 6.3828-3.0117 13.973-0.31641 16.98 6.0391z"/>
</svg>
