<?xml version="1.0" encoding="UTF-8"?>
<svg width="752pt" height="752pt" version="1.1" viewBox="0 0 752 752" xmlns="http://www.w3.org/2000/svg">
 <g fill-rule="evenodd">
  <path d="m493 228.94c0-32.289-26.211-58.5-58.5-58.5h-117c-32.285 0-58.5 26.211-58.5 58.5v299.33c0 32.289 26.215 58.5 58.5 58.5h117c32.289 0 58.5-26.211 58.5-58.5zm-117 231.79c29.641 0 53.703 24.062 53.703 53.699 0 29.645-24.062 53.703-53.703 53.703-29.637 0-53.699-24.059-53.699-53.703 0-29.637 24.062-53.699 53.699-53.699zm0-135.82c29.641 0 53.703 24.062 53.703 53.699 0 29.641-24.062 53.703-53.703 53.703-29.637 0-53.699-24.062-53.699-53.703 0-29.637 24.062-53.699 53.699-53.699zm0-135.82c29.641 0 53.703 24.059 53.703 53.703 0 29.637-24.062 53.699-53.703 53.699-29.637 0-53.699-24.062-53.699-53.699 0-29.645 24.062-53.703 53.699-53.703z"/>
  <path d="m421.16 243.01c0 25.445-20.219 46.074-45.16 46.074s-45.16-20.629-45.16-46.074c0-25.441 20.219-46.07 45.16-46.07s45.16 20.629 45.16 46.07"/>
 </g>
</svg>
