<?xml version="1.0" encoding="UTF-8"?>
<svg width="752pt" height="752pt" version="1.1" viewBox="0 0 752 752" xmlns="http://www.w3.org/2000/svg">
 <path d="m302 457.1v111.29c0 3.9258 1.5586 7.6875 4.3359 10.465 2.7734 2.7734 6.5391 4.332 10.465 4.332h118.39c3.9258 0 7.6875-1.5586 10.465-4.332 2.7734-2.7773 4.3359-6.5391 4.3359-10.465v-111.29l68.375-54.758h-0.003906c3.5352-2.793 5.6055-7.0391 5.625-11.543v-147.99c-0.027344-4.9531-2.5273-9.5625-6.6602-12.285l-88.797-59.199c-2.9805-1.9609-6.5742-2.7812-10.113-2.3047-3.5352 0.47266-6.7852 2.2148-9.1406 4.8945-2.3594 2.6797-3.668 6.125-3.6836 9.6953v133.2h-59.199v-133.2c-0.019532-3.5703-1.3281-7.0156-3.6836-9.6953-2.3594-2.6797-5.6055-4.4219-9.1445-4.8945-3.5391-0.47656-7.1289 0.34375-10.109 2.3047l-88.797 59.199c-4.1367 2.7227-6.6367 7.332-6.6602 12.285v147.99c0.019532 4.5039 2.0898 8.75 5.625 11.543z"/>
</svg>
