<?xml version="1.0" encoding="UTF-8"?>
<svg width="752pt" height="752pt" version="1.1" viewBox="0 0 752 752" xmlns="http://www.w3.org/2000/svg">
 <g>
  <path d="m536.55 401.57h-4.2656v-42.148c0-55.41-44.988-100.4-100.4-100.4h-24.625c-9.4727-13.262-23.207-22.73-39.781-26.52v-33.625c0.47266-0.47266 0.94531-0.94531 1.4219-0.94531 3.7891-3.3164 8.0508-5.2109 12.785-5.2109h5.2109c5.6836 0 10.418 2.8398 14.68 6.6289 4.7344 4.7344 11.84 7.5781 18.941 7.5781 17.996 0 31.73-16.574 26.992-35.047-2.3672-9.4727-10.418-17.051-19.891-19.418-10.418-2.3672-19.891 0.47266-26.52 7.1055-3.7891 3.7891-8.5234 6.1562-13.734 6.1562h-6.1562c-4.7344 0-8.9961-1.8945-12.785-5.2109-4.2617-3.7891-9.9453-6.1562-16.102-6.1562s-11.84 2.3672-16.102 6.1562c-3.3125 2.3711-7.5742 4.7383-12.312 4.7383h-6.1562c-5.2109 0-9.9453-2.3672-13.734-6.1562-6.6289-6.6289-16.102-9.4727-26.52-7.1055-9.4727 2.3672-17.523 9.9453-19.891 19.418-4.7344 18.469 8.9961 35.047 26.992 35.047 7.5781 0 14.207-2.8398 18.941-7.5781 3.7891-3.7891 8.9961-6.6289 14.68-6.6289h5.6875c4.7344 0 8.9961 1.8945 12.785 5.2109 0.47266 0.47266 0.94531 0.94531 1.4219 1.4219v33.625c-16.102 3.7891-30.309 13.262-39.309 26.52l-61.09-0.003906v-19.891c0-4.2617-3.7891-8.0508-8.0508-8.0508h-25.102c-4.2617 0-8.0508 3.7891-8.0508 8.0508v116.5c0 4.2617 3.7891 8.0508 8.0508 8.0508h25.102c4.2617 0 8.0508-3.7891 8.0508-8.0508v-19.891h61.094c11.84 17.051 31.73 27.941 53.988 27.941s42.148-11.367 53.988-27.941h24.625c13.262 0 24.152 10.891 24.152 24.152v42.148h-4.2617c-10.418 0-18.941 8.5234-18.941 18.941s8.5234 18.941 18.941 18.941h84.77c10.418 0 18.941-8.5234 18.941-18.941 0.47656-10.891-8.0469-19.414-18.465-19.414z"/>
  <path d="m504.82 475.45c-1.8945-4.2617-6.1562-6.6289-10.891-6.6289s-8.9961 2.3672-10.891 6.6289c0 0-24.625 47.832-30.309 58.723-6.6289 13.262-6.6289 27.941 0 41.203 8.0508 15.629 23.68 25.102 41.203 25.102 7.1055 0 14.207-1.4219 20.363-4.7344 10.891-5.2109 18.941-15.156 22.73-26.52 3.7891-11.84 2.8398-24.152-2.3672-35.047z"/>
 </g>
</svg>
