<?xml version="1.0" encoding="UTF-8"?>
<svg width="752pt" height="752pt" version="1.1" viewBox="0 0 752 752" xmlns="http://www.w3.org/2000/svg">
 <g>
  <path d="m549.61 543.68-326.89-326.92-20.293 20.293 63.016 63.289v112.04c0 23.793 19.289 43.055 43.055 43.055h19.734v35.059h30.609v89.695h67.938v-89.695h29.062l73.461 73.461zm-224.11-183.52h-21.496v-16.375h5.1523zm-21.496 46.57v-16.375h51.691l16.375 16.375z"/>
  <path d="m481.59 343.8v16.375h-84.371l30.207 30.195h54.145v16.375h-37.816l46.469 46.441c17.293-5.582 29.906-21.613 29.906-40.785v-112.04h-36.824l0.007812-111.39c0-9.4727-7.6797-17.148-17.148-17.148-9.5 0-17.18 7.6797-17.18 17.148v111.39h-111.55l43.441 43.441z"/>
  <path d="m336.61 188.96c0-9.4727-7.6797-17.148-17.18-17.148-9.4727 0-17.18 7.6797-17.18 17.148v76.203l34.371 34.355v-110.56z"/>
 </g>
</svg>
