<?xml version="1.0" encoding="UTF-8"?>
<svg width="752pt" height="752pt" version="1.1" viewBox="0 0 752 752" xmlns="http://www.w3.org/2000/svg">
 <g>
  <path d="m376.95 265.66c-38.359 0-69.617 31.258-69.617 69.617 0 38.359 31.258 69.617 69.617 69.617s69.617-31.258 69.617-69.617c0-38.359-30.785-69.617-69.617-69.617z"/>
  <path d="m377.42 158.15c-121.24 0-219.27 98.031-219.27 218.8 0 120.76 98.031 218.79 218.79 218.79 120.76 0 218.79-98.031 218.79-218.79 0.47656-120.77-98.027-218.8-218.32-218.8zm139.71 320.62-7.1055 9.9453-5.6836-10.891c-11.367-22.258-31.258-35.992-53.043-35.992l-148.7-0.003906c-21.785 0-41.676 13.262-53.043 35.992l-5.6836 10.891-7.1055-9.9453c-21.785-29.836-33.152-65.355-33.152-101.82 0.003907-95.66 77.672-173.33 173.81-173.33 95.664 0 173.33 77.668 173.33 173.33 0 36.938-11.367 71.984-33.625 101.82z"/>
 </g>
</svg>
